<svg width="41" height="41" viewBox="0 0 41 41" fill="none" xmlns="http://www.w3.org/2000/svg">
<path fill-rule="evenodd" clip-rule="evenodd" d="M3.30221 20.5C3.30221 20.8315 3.43391 21.1495 3.66833 21.3839C3.90275 21.6183 4.22069 21.75 4.55221 21.75L34.0347 21.75L26.1672 29.615C26.051 29.7312 25.9588 29.8692 25.8959 30.021C25.833 30.1729 25.8006 30.3356 25.8006 30.5C25.8006 30.6644 25.833 30.8271 25.8959 30.979C25.9588 31.1308 26.051 31.2688 26.1672 31.385C26.2834 31.5012 26.4214 31.5934 26.5733 31.6563C26.7251 31.7192 26.8879 31.7516 27.0522 31.7516C27.2166 31.7516 27.3793 31.7192 27.5312 31.6563C27.683 31.5934 27.821 31.5012 27.9372 31.385L37.9372 21.385C38.0536 21.2689 38.146 21.131 38.209 20.9791C38.272 20.8272 38.3044 20.6644 38.3044 20.5C38.3044 20.3356 38.272 20.1728 38.209 20.0209C38.146 19.8691 38.0536 19.7311 37.9372 19.615L27.9372 9.615C27.821 9.49878 27.683 9.40659 27.5312 9.3437C27.3793 9.2808 27.2166 9.24843 27.0522 9.24843C26.8879 9.24843 26.7251 9.2808 26.5733 9.3437C26.4214 9.40659 26.2834 9.49878 26.1672 9.615C26.051 9.73122 25.9588 9.8692 25.8959 10.021C25.833 10.1729 25.8006 10.3356 25.8006 10.5C25.8006 10.6644 25.833 10.8271 25.8959 10.979C25.9588 11.1308 26.051 11.2688 26.1672 11.385L34.0347 19.25L4.55221 19.25C4.22069 19.25 3.90275 19.3817 3.66833 19.6161C3.43391 19.8505 3.30221 20.1685 3.30221 20.5Z" fill="#F7931E"/>
</svg>
