<svg width="36" height="34" viewBox="0 0 36 34" fill="none" xmlns="http://www.w3.org/2000/svg">
<g clip-path="url(#clip0_456_706)">
<path d="M23.2603 16.4688H18.9124C18.8332 16.2466 18.7055 16.0448 18.5387 15.8779C18.3718 15.7111 18.17 15.5834 17.9478 15.5042V9.03134C17.9478 8.89045 17.8918 8.75532 17.7922 8.65569C17.6925 8.55606 17.5574 8.50009 17.4165 8.50009C17.2756 8.50009 17.1405 8.55606 17.0409 8.65569C16.9412 8.75532 16.8853 8.89045 16.8853 9.03134V15.5042C16.6317 15.5934 16.4048 15.7454 16.226 15.946C16.0471 16.1466 15.922 16.3893 15.8624 16.6514C15.8027 16.9135 15.8106 17.1864 15.8851 17.4447C15.9596 17.703 16.0983 17.9381 16.2884 18.1282C16.4785 18.3183 16.7136 18.457 16.9719 18.5315C17.2302 18.606 17.5031 18.6139 17.7652 18.5542C18.0273 18.4946 18.27 18.3695 18.4706 18.1906C18.6712 18.0118 18.8232 17.7849 18.9124 17.5313H23.2603C23.4012 17.5313 23.5363 17.4754 23.6359 17.3757C23.7355 17.2761 23.7915 17.141 23.7915 17.0001C23.7915 16.8592 23.7355 16.7241 23.6359 16.6244C23.5363 16.5248 23.4012 16.4688 23.2603 16.4688ZM17.4165 17.5313C17.3114 17.5313 17.2087 17.5002 17.1214 17.4418C17.034 17.3834 16.9659 17.3005 16.9257 17.2034C16.8855 17.1063 16.875 16.9995 16.8955 16.8965C16.916 16.7934 16.9666 16.6987 17.0409 16.6244C17.1152 16.5501 17.2098 16.4995 17.3129 16.4791C17.4159 16.4586 17.5227 16.4691 17.6198 16.5093C17.7169 16.5495 17.7999 16.6176 17.8582 16.7049C17.9166 16.7923 17.9478 16.895 17.9478 17.0001C17.9476 17.1409 17.8915 17.276 17.792 17.3755C17.6924 17.4751 17.5573 17.5312 17.4165 17.5313ZM34.4165 17.0001C34.4169 14.3203 33.7838 11.6784 32.5688 9.28982C31.3537 6.90129 29.5913 4.83383 27.4251 3.25612C25.259 1.6784 22.7506 0.635127 20.1045 0.211409C17.4584 -0.212308 14.7496 -0.00446613 12.1991 0.817979C9.64864 1.64042 7.32873 3.05417 5.42864 4.94389C3.52855 6.8336 2.10213 9.14574 1.26573 11.6917C0.429334 14.2376 0.206666 16.9452 0.615891 19.5936C1.02512 22.242 2.05464 24.7561 3.62047 26.9308C3.61212 26.9848 3.60662 27.0392 3.60401 27.0938V28.1563C3.60447 28.5789 3.77253 28.984 4.07131 29.2828C4.3701 29.5816 4.77521 29.7496 5.19776 29.7501H5.72901V30.9039C5.72953 31.4431 5.94396 31.9601 6.32523 32.3414C6.70651 32.7226 7.22349 32.9371 7.76269 32.9376H7.94532C8.32777 32.9366 8.70205 32.8268 9.02442 32.621C9.15392 33.0206 9.40633 33.3691 9.74564 33.6168C10.0849 33.8644 10.4938 33.9986 10.9139 34.0001H11.1691C11.6987 33.9994 12.2063 33.7888 12.5807 33.4143C12.9552 33.0399 13.1658 32.5323 13.1665 32.0027V29.7501H21.6665V32.0027C21.6672 32.5322 21.8778 33.0399 22.2523 33.4143C22.6267 33.7888 23.1343 33.9994 23.6639 34.0001H23.9191C24.3392 33.9986 24.7481 33.8644 25.0874 33.6168C25.4267 33.3691 25.6791 33.0206 25.8086 32.621C26.131 32.8268 26.5052 32.9366 26.8877 32.9376H27.0703C27.6095 32.9371 28.1265 32.7226 28.5078 32.3414C28.8891 31.9601 29.1035 31.4431 29.104 30.9039V29.7501H29.6353C30.0578 29.7496 30.4629 29.5816 30.7617 29.2828C31.0605 28.984 31.2285 28.5789 31.229 28.1563V27.0938C31.2264 27.0392 31.2209 26.9848 31.2125 26.9308C33.3025 24.042 34.4241 20.5656 34.4165 17.0001ZM5.72901 28.6876H5.19776C5.05692 28.6874 4.9219 28.6314 4.82231 28.5318C4.72272 28.4322 4.66669 28.2972 4.66651 28.1563V27.0938C4.66669 26.953 4.72272 26.818 4.82231 26.7184C4.9219 26.6188 5.05692 26.5628 5.19776 26.5626H5.72901V28.6876ZM8.91651 30.9039C8.91617 31.1614 8.81375 31.4082 8.63169 31.5903C8.44962 31.7723 8.20279 31.8748 7.94532 31.8751H7.76269C7.50522 31.8748 7.25839 31.7723 7.07633 31.5903C6.89427 31.4082 6.79184 31.1614 6.79151 30.9039V25.4088C6.79184 25.1513 6.89427 24.9045 7.07633 24.7224C7.25839 24.5404 7.50522 24.4379 7.76269 24.4376H7.94532C8.20279 24.4379 8.44962 24.5404 8.63169 24.7224C8.81375 24.9045 8.91617 25.1513 8.91651 25.4088V30.9039ZM12.104 32.0027C12.1038 32.2506 12.0052 32.4883 11.83 32.6635C11.6547 32.8388 11.417 32.9374 11.1691 32.9376H10.9139C10.666 32.9374 10.4283 32.8388 10.2531 32.6635C10.0778 32.4883 9.97922 32.2506 9.97901 32.0027V23.2475C9.97922 22.9996 10.0778 22.7619 10.2531 22.5866C10.4283 22.4114 10.666 22.3128 10.9139 22.3126H11.1691C11.417 22.3128 11.6547 22.4114 11.8299 22.5866C12.0052 22.7619 12.1038 22.9996 12.104 23.2475V32.0027ZM21.6665 28.6876H13.1665V26.5626H21.6665V28.6876ZM24.854 25.4088V32.0027C24.8538 32.2506 24.7552 32.4883 24.58 32.6635C24.4047 32.8388 24.167 32.9374 23.9191 32.9376H23.6639C23.416 32.9374 23.1783 32.8388 23.0031 32.6635C22.8278 32.4883 22.7292 32.2506 22.729 32.0027V23.2475C22.7292 22.9996 22.8278 22.7619 23.0031 22.5866C23.1783 22.4114 23.416 22.3128 23.6639 22.3126H23.9191C24.167 22.3128 24.4047 22.4114 24.5799 22.5866C24.7552 22.7619 24.8538 22.9996 24.854 23.2475V25.4088ZM28.0415 30.9039C28.0412 31.1614 27.9387 31.4082 27.7567 31.5903C27.5746 31.7723 27.3278 31.8748 27.0703 31.8751H26.8877C26.6302 31.8748 26.3834 31.7723 26.2013 31.5903C26.0193 31.4082 25.9168 31.1614 25.9165 30.9039V25.4088C25.9168 25.1513 26.0193 24.9045 26.2013 24.7224C26.3834 24.5404 26.6302 24.4379 26.8877 24.4376H27.0703C27.3278 24.4379 27.5746 24.5404 27.7567 24.7224C27.9387 24.9045 28.0412 25.1513 28.0415 25.4088V30.9039ZM28.2314 23.7432C27.8915 23.5039 27.486 23.3753 27.0703 23.3751H26.8877C26.5473 23.3774 26.2131 23.4662 25.9165 23.6331V23.2475C25.9158 22.7179 25.7052 22.2103 25.3307 21.8358C24.9563 21.4614 24.4487 21.2508 23.9191 21.2501H23.6639C23.1344 21.2508 22.6267 21.4614 22.2523 21.8358C21.8778 22.2103 21.6672 22.7179 21.6665 23.2475V25.5001H13.1665V23.2475C13.1658 22.7179 12.9552 22.2103 12.5807 21.8358C12.2063 21.4614 11.6987 21.2508 11.1691 21.2501H10.9139C10.3843 21.2508 9.8767 21.4614 9.50226 21.8358C9.12783 22.2103 8.91718 22.7179 8.91651 23.2475V23.6331C8.61987 23.4662 8.28568 23.3774 7.94532 23.3751H7.76269C7.34701 23.3753 6.94153 23.5039 6.60163 23.7432C5.43493 21.8739 4.77492 19.7331 4.68654 17.5313H6.26026C6.40115 17.5313 6.53628 17.4754 6.63591 17.3757C6.73554 17.2761 6.79151 17.141 6.79151 17.0001C6.79151 16.8592 6.73554 16.7241 6.63591 16.6244C6.53628 16.5248 6.40115 16.4688 6.26026 16.4688H4.69238C4.80864 13.4585 5.99679 10.5888 8.04253 8.37733L9.15204 9.48685C9.252 9.58481 9.38657 9.63936 9.52652 9.63865C9.66647 9.63794 9.80049 9.58204 9.89945 9.48307C9.99841 9.38411 10.0543 9.25009 10.055 9.11014C10.0557 8.97019 10.0012 8.83562 9.90323 8.73566L8.79368 7.62605C11.0051 5.58015 13.8749 4.39199 16.8853 4.27597V5.84384C16.8853 5.98474 16.9412 6.11987 17.0409 6.21949C17.1405 6.31912 17.2756 6.37509 17.4165 6.37509C17.5574 6.37509 17.6925 6.31912 17.7922 6.21949C17.8918 6.11987 17.9478 5.98474 17.9478 5.84384V4.27597C20.9581 4.39198 23.8279 5.58013 26.0393 7.62603L24.9298 8.73563C24.8796 8.78477 24.8397 8.84337 24.8123 8.90802C24.785 8.97268 24.7707 9.04213 24.7704 9.11233C24.77 9.18254 24.7836 9.25212 24.8103 9.31706C24.837 9.38199 24.8763 9.44098 24.9259 9.49063C24.9756 9.54028 25.0346 9.57959 25.0995 9.60629C25.1644 9.63299 25.234 9.64656 25.3042 9.64621C25.3744 9.64585 25.4439 9.63158 25.5085 9.60422C25.5732 9.57687 25.6318 9.53696 25.6809 9.48682L26.7905 8.3773C28.8362 10.5888 30.0244 13.4585 30.1406 16.4688H28.5728C28.4319 16.4688 28.2967 16.5248 28.1971 16.6244C28.0975 16.7241 28.0415 16.8592 28.0415 17.0001C28.0415 17.141 28.0975 17.2761 28.1971 17.3757C28.2967 17.4754 28.4319 17.5313 28.5728 17.5313H30.1465C30.0581 19.7331 29.3981 21.8739 28.2314 23.7432ZM30.1665 28.1563C30.1663 28.2972 30.1103 28.4322 30.0107 28.5318C29.9111 28.6314 29.7761 28.6874 29.6353 28.6876H29.104V26.5626H29.6353C29.7761 26.5628 29.9111 26.6188 30.0107 26.7184C30.1103 26.818 30.1663 26.953 30.1665 27.0938V28.1563ZM30.6487 25.8741C30.3654 25.6341 30.0065 25.5017 29.6353 25.5001H29.104V25.4088C29.104 25.1329 29.0475 24.86 28.938 24.6068C30.3145 22.5252 31.1013 20.1094 31.2147 17.6163C31.3282 15.1233 30.7641 12.6461 29.5823 10.4479C28.4006 8.24982 26.6454 6.41294 24.5033 5.1325C22.3612 3.85206 19.9121 3.17591 17.4165 3.17591C14.9209 3.17591 12.4719 3.85206 10.3297 5.1325C8.1876 6.41294 6.43241 8.24982 5.25068 10.4479C4.06895 12.6461 3.50483 15.1233 3.61829 17.6163C3.73174 20.1094 4.51852 22.5252 5.89502 24.6068C5.78552 24.86 5.72902 25.1329 5.72901 25.4088V25.5001H5.19776C4.82647 25.5017 4.46763 25.6341 4.18434 25.8741C2.79762 23.8065 1.91463 21.4427 1.60617 18.9723C1.29771 16.5019 1.57236 13.9936 2.40811 11.6485C3.24385 9.3034 4.61743 7.18673 6.41873 5.4682C8.22003 3.74967 10.3989 2.47709 12.7807 1.7525C15.1625 1.02791 17.681 0.87146 20.1341 1.2957C22.5873 1.71993 24.907 2.71305 26.9071 4.19543C28.9072 5.6778 30.5322 7.6082 31.6518 9.83184C32.7714 12.0555 33.3543 14.5105 33.354 17.0001C33.3588 20.1619 32.4166 23.2527 30.6487 25.8741Z" fill="#F7931E"/>
</g>
<defs>
<clipPath id="clip0_456_706">
<rect width="34.3411" height="34" fill="white" transform="translate(0.787598)"/>
</clipPath>
</defs>
</svg>
